{"title":"Frank.2014.720p.H264.AAC.5.1ch.MP4.Raven","uid":10957810,"size":818202553,"categoryP":"video","categoryS":"movies","magnet":"?xt=urn:btih:275342fbc74d2c3e3563e347448d93c627677f28&amp;dn=Frank.2014.720p.H264.AAC.5.1ch.MP4.Raven&amp;tr=udp%3A%2F%2Ftracker.openbittorrent.com%3A80&amp;tr=udp%3A%2F%2Fopen.demonii.com%3A1337&amp;tr=udp%3A%2F%2Ftracker.coppersurfer.tk%3A6969&amp;tr=udp%3A%2F%2Fexodus.desync.com%3A6969","seeders":1,"leechers":0,"uploader":"Raven1969","files":-1,"time":1409696033,"description":"Frank.2014.720p.H264.AAC.5.1ch.MP4.Raven.\n\n\n\nScreen images:\n\n\n &lt;a href=&quot;\nhttp://i.imgur.com/s0YfVje.png&quot; rel=&quot;nofollow&quot; target=&quot;_NEW&quot;&gt;\nhttp://i.imgur.com/s0YfVje.png&lt;/a&gt;\n\n\n &lt;a href=&quot;\nhttp://i.imgur.com/gWn0klK.png&quot; rel=&quot;nofollow&quot; target=&quot;_NEW&quot;&gt;\nhttp://i.imgur.com/gWn0klK.png&lt;/a&gt;\n\n\n &lt;a href=&quot;\nhttp://i.imgur.com/3Or7X8T.png&quot; rel=&quot;nofollow&quot; target=&quot;_NEW&quot;&gt;\nhttp://i.imgur.com/3Or7X8T.png&lt;/a&gt;\n\n\n &lt;a href=&quot;\nhttp://i.imgur.com/3Kqrofq.png&quot; rel=&quot;nofollow&quot; target=&quot;_NEW&quot;&gt;\nhttp://i.imgur.com/3Kqrofq.png&lt;/a&gt;\n\n\n &lt;a href=&quot;\nhttp://i.imgur.com/oNGHpnX.png&quot; rel=&quot;nofollow&quot; target=&quot;_NEW&quot;&gt;\nhttp://i.imgur.com/oNGHpnX.png&lt;/a&gt;\n\n\n\nIMDB:\n\n\n\n &lt;a href=&quot;\nhttp://www.imdb.com/title/tt1605717&quot; rel=&quot;nofollow&quot; target=&quot;_NEW&quot;&gt;\nhttp://www.imdb.com/title/tt1605717&lt;/a&gt;\n\n\n\n\nIMDB Rating 7.3\n\n\n\n\nStoryline:\n\nJon, a young wanna-be musician, discovers he's bitten off more than he can chew when he joins an eccentric pop band led by the mysterious and enigmatic Frank.\n\n\n\n\n\nGeneral\n\n\n\nFormat                                   : MPEG-4\nFormat profile                           : Base Media\nCodec ID                                 : isom\nFile size                                : 780 MiB\nDuration                                 : 1h 35mn\nOverall bit rate mode                    : Variable\nOverall bit rate                         : 1 146 Kbps\nMovie name                               : Frank\nGenre                                    : Comedy &amp; Drama &amp; Mystery\nDescription                              : A comedy about a young wannabe musician (Domhnall Gleeson) who discovers he has bitten off more than he can chew when he joins an eccentric pop band led by the mysterious and enigmatic Frank (Michael Fassbender).\nRecorded date                            : 2014-08-22\nCopyright                                : Fuck the MPAA\nTitle/Sort                               : Frank\nHDVideo                                  : Yes\nContentRating                            : mpaa|R|\n\n\n\n\n\nVideo\n\n\n\nFormat                                   : AVC\nFormat/Info                              : Advanced Video Codec\nFormat profile                           : &lt;a class=&quot;__cf_email__&quot; href=&quot;/cdn-cgi/l/email-protection&quot; data-cfemail=&quot;7538141c1b3539415b45&quot;&gt;[email&amp;#160;protected]&lt;/a&gt;&lt;script cf-hash='f9e31' type=&quot;text/javascript&quot;&gt;\n/* &lt;![CDATA[ */!function(){try{var t=&quot;currentScript&quot;in document?document.currentScript:function(){for(var t=document.getElementsByTagName(&quot;script&quot;),e=t.length;e--;)if(t[e].getAttribute(&quot;cf-hash&quot;))return t[e]}();if(t&amp;&amp;t.previousSibling){var e,r,n,i,c=t.previousSibling,a=c.getAttribute(&quot;data-cfemail&quot;);if(a){for(e=&quot;&quot;,r=parseInt(a.substr(0,2),16),n=2;a.length-n;n+=2)i=parseInt(a.substr(n,2),16)^r,e+=String.fromCharCode(i);e=document.createTextNode(e),c.parentNode.replaceChild(e,c)}}}catch(u){}}();/* ]]&gt; */&lt;/script&gt;\nFormat settings, CABAC                   : Yes\nFormat settings, ReFrames                : 4 frames\nCodec ID                                 : avc1\nCodec ID/Info                            : Advanced Video Coding\nDuration                                 : 1h 35mn\nBit rate                                 : 951 Kbps\nMaximum bit rate                         : 6 439 Kbps\nWidth                                    : 1 278 pixels\nHeight                                   : 542 pixels\nDisplay aspect ratio                     : 2.35:1\nFrame rate mode                          : Constant\nFrame rate                               : 23.976 fps\nColor space                              : YUV\nChroma subsampling                       : 4:2:0\nBit depth                                : 8 bits\nScan type                                : Progressive\nBits/(Pixel*Frame)                       : 0.057\nStream size                              : 647 MiB (83%)\nWriting library                          : x264\nLanguage                                 : English\n\n\n\n\n\nAudio\n\n\n\nFormat                                   : AAC\nFormat/Info                              : Advanced Audio Codec\nFormat profile                           : LC\nCodec ID                                 : 40\nDuration                                 : 1h 35mn\nBit rate mode                            : Variable\nBit rate                                 : 192 Kbps\nMaximum bit rate                         : 303 Kbps\nOriginal Channel count                   : 6 channels\nChannel positions                        : Front: L C R, Side: L R, LFE\nSampling rate                            : 44.1 KHz\nCompression mode                         : Lossy\nStream size                              : 131 MiB (17%)\nLanguage                                 : English\n\n\n\nPLEASE COMMENT ON QUALITY AND SEED FOR AS LONG AS POSSIBLE TO KEEP THE TORRENT ALIVE :-","torrent":{"xt":"urn:btih:275342fbc74d2c3e3563e347448d93c627677f28","amp;dn":"Frank.2014.720p.H264.AAC.5.1ch.MP4.Raven","amp;tr":["udp%3A%2F%2Ftracker.openbittorrent.com%3A80","udp%3A%2F%2Fopen.demonii.com%3A1337","udp%3A%2F%2Ftracker.coppersurfer.tk%3A6969","udp%3A%2F%2Fexodus.desync.com%3A6969"],"infoHash":"275342fbc74d2c3e3563e347448d93c627677f28","infoHashBuffer":{"type":"Buffer","data":[39,83,66,251,199,77,44,62,53,99,227,71,68,141,147,198,39,103,127,40]},"announce":[],"urlList":[]}}